PathFileType	4	(X/Y/Z)	Run_400 05
DataRate	CameraRate	NumFrames	NumMarkers	Units	OrigDataRate	OrigDataStartFrame	OrigNumFrames
120	120	7	42	mm	120	64	128
Frame#	Time	LASI			RASI			LPSI			RPSI			RTH1			RTH2			RTH3			LTH1			LTH2			LTH3			RTB1			RTB2			RTB3			LTB1			LTB2			LTB3			RCAL			RTOE			RMT5			LCAL			LTOE			LMT5			LACR			RACR			CLAV			C7			RUA1			RUA2			RUA3			RLEL			RMEL			LUA1			LUA2			LUA3			LLEL			LMEL			RFAsuperior			RFAradius			RFAulna			LFAsuperior			LFAradius			LFAulna			
		X1	Y1	Z1	X2	Y2	Z2	X3	Y3	Z3	X4	Y4	Z4	X5	Y5	Z5	X6	Y6	Z6	X7	Y7	Z7	X8	Y8	Z8	X9	Y9	Z9	X10	Y10	Z10	X11	Y11	Z11	X12	Y12	Z12	X13	Y13	Z13	X14	Y14	Z14	X15	Y15	Z15	X16	Y16	Z16	X17	Y17	Z17	X18	Y18	Z18	X19	Y19	Z19	X20	Y20	Z20	X21	Y21	Z21	X22	Y22	Z22	X23	Y23	Z23	X24	Y24	Z24	X25	Y25	Z25	X26	Y26	Z26	X27	Y27	Z27	X28	Y28	Z28	X29	Y29	Z29	X30	Y30	Z30	X31	Y31	Z31	X32	Y32	Z32	X33	Y33	Z33	X34	Y34	Z34	X35	Y35	Z35	X36	Y36	Z36	X37	Y37	Z37	X38	Y38	Z38	X39	Y39	Z39	X40	Y40	Z40	X41	Y41	Z41	X42	Y42	Z42	

64	0.625	916.542964	1031.505475	-437.079612	937.27341	1008.205702	-178.464735	745.3438	1062.714324	-324.32861	751.786167	1047.866214	-245.413862	918.812306	840.431672	-134.813896	1023.860806	771.5938	-144.950233	1005.600207	646.566879	-164.365458	864.058224	820.809533	-482.538007	938.264821	703.333812	-468.667591	892.538637	585.802764	-434.652581	994.665888	470.983873	-250.953823	928.030812	480.992599	-179.492102	874.661478	395.495927	-249.34797	912.958157	359.887049	-346.033083	844.691554	289.397879	-388.255084	797.70773	196.907186	-308.079048	654.542103	546.175901	-246.954418	671.22722	312.691654	-250.034439	636.673773	378.315268	-163.263519	622.410298	113.376002	-281.810196	852.574027	69.968636	-263.996366	777.030387	51.378854	-354.428157	979.710775	1463.823786	-473.834987	966.3595309999999	1481.17638	-123.73044	1011.95012	1418.446673	-262.883228	894.194879	1520.868465	-300.677039	910.242963	1384.351717	-49.235238	873.060935	1301.763786	-53.636675	801.343193	1326.930063	-29.914629	725.463921	1214.737558	12.817849	690.930622	1212.617062	-64.05315400000001	965.3354849999999	1368.551387	-546.986458	972.35825	1296.904989	-540.0765720000001	875.715094	1285.687201	-560.344652	885.82226	1132.839545	-628.447147	831.993469	1112.423177	-561.962158	812.929077	1146.495548	14.442755	942.458757	1053.567088	-68.55136299999999	912.780725	1019.574299	-12.124702	978.6544259999999	1130.448424	-591.608132	1102.315296	1147.820895	-464.841427	1114.44288	1081.602633	-491.906687	
65	0.633333	916.171139	1032.617626	-437.791558	938.104406	1011.228522	-179.421648	745.445598	1064.791307	-324.421073	752.097531	1050.524686	-245.200095	922.595465	846.001361	-134.701085	1030.877152	782.089804	-145.267489	1018.501402	656.563975	-163.872149	855.1460499999999	820.550827	-482.449777	925.228038	700.708876	-469.062602	873.950565	584.570784	-435.587693	1017.34028	476.868724	-252.004045	950.125684	481.865091	-179.60423	896.708863	396.450791	-249.437573	885.9267170000001	356.90512	-346.828547	815.379889	288.352676	-388.552998	766.876414	196.821808	-308.509813	671.596795	525.381666	-245.059768	708.5485609999999	294.357307	-251.619036	668.534872	355.465387	-163.810732	589.853736	116.846292	-282.268254	819.136247	69.550995	-264.233562	743.277933	51.555907	-354.378345	983.390301	1468.912633	-471.243094	961.8672749999999	1483.737192	-122.035435	1010.904699	1421.540411	-260.158081	893.536953	1523.422689	-300.329242	900.796121	1390.605103	-47.933949	861.804477	1308.763564	-51.890566	789.259307	1336.153669	-33.114151	710.937661	1225.655578	10.340042	678.003013	1223.630418	-66.44909199999999	971.211011	1374.197594	-545.324715	978.289004	1302.112061	-537.714148	882.774227	1290.027307	-561.403354	894.929004	1135.657487	-625.2805949999999	841.222567	1115.088317	-558.765673	795.998185	1155.081715	13.581511	927.303755	1063.19825	-67.846113	895.264442	1028.357555	-13.173013	987.549624	1137.697478	-587.193155	1108.094607	1160.311539	-458.479663	1123.697321	1094.647175	-485.183971	
66	0.641667	916.3498980000001	1033.970164	-438.167619	939.570709	1014.797057	-180.421645	746.163865	1067.211761	-324.609761	753.024853	1053.748977	-244.965842	926.707635	852.433782	-134.256627	1037.148943	792.916913	-145.387489	1030.279222	667.263491	-163.280282	847.360892	821.25249	-482.084187	912.535004	698.648139	-469.108635	854.812147	584.4239679999999	-435.827147	1038.786889	482.836103	-252.826804	971.269606	482.591829	-179.832536	917.9227	397.185261	-249.650546	858.454323	354.983536	-347.629041	785.659394	288.434703	-388.608985	735.823883	197.822761	-308.860137	689.4956550000001	502.777175	-244.153901	747.624867	276.246755	-253.665644	702.303393	332.418965	-164.834161	557.637666	121.60923	-282.901398	785.738862	69.18561800000001	-264.484293	709.558626	51.855126	-354.063231	986.814781	1475.001368	-468.350203	957.054261	1487.605379	-120.464369	1009.880179	1425.934485	-257.332115	892.503242	1526.601674	-299.945824	891.878208	1398.456345	-46.844798	851.444397	1317.16419	-50.692046	778.434472	1346.662197	-36.005302	697.181662	1237.730371	7.174352	668.526338	1235.415568	-70.545615	976.2054429999999	1380.910004	-543.294296	983.884449	1308.379171	-535.400492	889.887781	1295.87811	-560.770146	903.214397	1139.955026	-621.941728	849.132075	1119.529656	-555.396867	780.854833	1166.14559	11.667721	912.977107	1074.147862	-67.75744400000001	878.913629	1038.854692	-14.519792	995.4963289999999	1146.50115	-582.375416	1112.460909	1173.871101	-451.891569	1131.337067	1108.917084	-478.268598	
67	0.65	917.2611020000001	1035.396198	-438.919731	941.5716159999999	1019.068374	-181.5747	747.622479	1070.06861	-325.038706	754.53659	1057.658213	-244.851489	931.0296499999999	859.6099380000001	-133.438966	1042.764397	803.95295	-145.298833	1040.825803	678.506469	-162.533684	840.989519	822.929099	-481.557709	900.035112	697.458344	-468.698274	835.3959149999999	585.698579	-435.404199	1059.031419	488.74787	-253.243777	991.661095	482.824653	-180.15835	938.548244	397.342538	-249.970232	830.824055	354.742614	-348.704557	756.007828	290.215669	-388.671161	704.940253	200.329696	-309.26799	708.813338	478.662555	-244.253513	788.06304	258.71675	-256.09867	737.816725	309.598831	-166.339883	526.134639	128.02005	-283.781487	752.508517	68.800793	-264.77714	676.041389	52.397552	-353.623696	989.76	1481.847565	-465.48432	951.9655749999999	1492.635744	-119.101074	1008.885898	1431.563737	-254.416145	891.298173	1530.405028	-299.704611	883.860044	1407.376357	-46.033018	842.205237	1326.543107	-50.182979	769.126719	1358.020727	-38.370995	684.283628	1250.755192	3.225887	661.534281	1247.891028	-76.22802	980.43904	1388.199747	-540.974019	989.132782	1315.441175	-533.0521680000001	896.564151	1302.423024	-558.614496	910.771464	1145.366997	-618.566089	855.79416	1125.387812	-552.121078	767.378288	1179.223448	8.946642000000001	899.62929	1085.871931	-67.838652	863.789094	1050.419592	-15.830116	1002.322885	1155.673753	-577.631813	1115.510144	1188.004507	-445.176804	1137.340591	1123.791723	-471.044232	
68	0.6583329999999999	918.979071	1036.817006	-440.61912	943.864056	1024.1495	-182.833786	749.8833069999999	1073.48255	-325.857736	756.4808849999999	1062.29704	-244.954668	935.415256	867.447716	-132.32573	1047.783238	815.073558	-145.02712	1049.989012	689.980859	-161.645276	835.824124	825.41043	-480.96131	887.648028	697.374265	-467.826293	816.06226	588.60794	-434.481191	1078.16926	494.415112	-253.245743	1011.495942	482.366739	-180.564745	958.626043	396.834506	-250.369833	803.339688	356.599744	-350.006461	726.865126	294.006865	-388.937887	674.722575	204.515481	-309.864586	729.989494	453.410586	-245.304926	829.541745	242.001595	-258.771638	774.794788	287.318556	-168.347315	495.75904	136.240675	-284.964095	719.635383	68.31086999999999	-265.113927	642.944911	53.384536	-353.31709	992.092456	1489.265884	-462.898218	946.838024	1498.568745	-118.019427	1007.859821	1438.208571	-251.468154	890.156468	1534.837055	-299.644454	876.873777	1416.903254	-45.54696	834.0272189999999	1336.495624	-50.455064	761.278531	1369.816956	-40.239113	672.328547	1264.506947	-1.484416	655.233346	1261.222883	-82.807607	984.157168	1395.830581	-538.456844	993.967403	1323.129098	-530.538753	902.307409	1309.259625	-555.750875	917.639729	1151.575236	-615.2563730000001	861.40593	1132.234483	-549.081411	755.077054	1193.474626	5.74439	887.30908	1097.977151	-67.96948	849.9006890000001	1062.618409	-16.963678	1008.085258	1164.625251	-573.154264	1117.356516	1202.340937	-438.441132	1141.796943	1138.790403	-463.483504	
69	0.666667	921.375648	1038.327738	-442.95085	946.207349	1030.014817	-184.047744	752.880848	1077.512798	-327.176977	758.67562	1067.596988	-245.364031	939.750503	875.826478	-131.087847	1052.250358	826.057443	-144.606222	1057.706349	701.22806	-160.716072	831.420347	828.507199	-480.321376	875.522063	698.501986	-466.589175	797.282164	593.19872	-433.351183	1096.297653	499.615612	-253.002518	1030.868721	481.185815	-181.027152	977.923164	395.809583	-250.805958	776.322056	360.599008	-351.25755	698.5812539999999	299.777412	-389.476748	645.630581	210.286065	-310.742694	753.224569	427.397725	-247.218721	871.913407	226.261489	-261.558347	812.977432	265.776313	-170.853458	466.876829	146.214439	-286.435132	687.286339	67.695988	-265.509471	610.442768	54.989467	-353.341341	993.843154	1497.104326	-460.647073	941.979815	1505.095014	-117.218485	1006.690572	1445.528962	-248.621162	889.193608	1539.828246	-299.661649	870.860737	1426.714384	-45.405049	826.7838369999999	1346.741388	-51.413862	754.660734	1381.733407	-41.868335	661.396262	1278.712995	-6.864559	648.406755	1275.472192	-89.581295	987.585158	1403.686637	-535.80943	998.290287	1331.270909	-527.759816	906.823821	1316.368277	-553.020568	923.811276	1158.339822	-612.084403	866.241613	1139.621717	-546.328395	743.5218609999999	1208.0421	2.286165	876.005914	1110.173688	-68.20944900000001	837.229835	1075.187863	-17.895138	1013.010966	1173.392467	-568.814657	1118.147334	1216.600661	-431.787507	1144.873362	1153.533301	-455.657672	
70	0.675	924.234787	1040.140795	-444.666114	948.506127	1036.513945	-185.059749	756.405084	1082.094749	-328.996084	761.043398	1073.427742	-246.171686	943.922564	884.559198	-129.905216	1056.198066	836.571306	-144.059742	1064.041736	711.761121	-159.960822	827.440292	832.1163309999999	-479.617817	863.990832	700.832016	-465.107737	779.51307	599.361358	-432.346254	1113.455514	504.139114	-252.733441	1049.745821	479.352327	-181.500466	996.230648	394.388496	-251.225277	750.096183	366.477934	-352.267828	671.387169	307.272688	-390.255149	617.9833620000001	217.39639	-311.942896	778.49011	400.929834	-249.875743	915.126625	211.66392	-264.429668	852.1984189999999	245.062276	-173.812496	439.776305	157.719095	-288.078831	655.5137099999999	66.99413	-265.972552	578.596767	57.25729	-353.678817	995.16907	1505.221005	-458.56951	937.623242	1511.914845	-116.612956	1005.303145	1453.159068	-246.042979	888.379408	1545.217679	-299.599786	865.6769399999999	1436.600013	-45.580819	820.391725	1357.122621	-52.801656	749.0174009999999	1393.579566	-43.642794	651.52489	1293.063717	-12.775493	641.166523	1290.341198	-96.245451	990.8538129999999	1411.676545	-533.076626	1002.02604	1339.641354	-524.71655	910.1369979999999	1323.840746	-550.8451659999999	929.239228	1165.48904	-609.074092	870.533395	1147.195359	-543.841694	732.552407	1222.313708	-1.357284	865.700055	1122.249114	-68.608121	825.722168	1087.917661	-18.67547	1017.294647	1182.261767	-564.421507	1118.054514	1230.561842	-425.318547	1146.759335	1167.727092	-447.72279	
